<svg viewBox="0 0 91.8386 80" xmlns="http://www.w3.org/2000/svg" xmlns:xlink="http://www.w3.org/1999/xlink" width="91.838593" height="80.000000" fill="none" customFrame="#000000">
	<g id="clients">
		<path id="Vector" d="M45.9192 31.2107C54.524 31.2107 61.5246 24.2102 61.5246 15.6054C61.5246 7.00053 54.524 0 45.9192 0C37.3144 0 30.3138 7.00053 30.3138 15.6054C30.3138 24.2102 37.3144 31.2107 45.9192 31.2107ZM45.9192 5.38116C51.5569 5.38116 56.1434 9.9677 56.1434 15.6054C56.1434 21.243 51.5569 25.8296 45.9192 25.8296C40.2815 25.8296 35.695 21.243 35.695 15.6054C35.695 9.9677 40.2815 5.38116 45.9192 5.38116Z" fill="rgb(35,82,222)" fill-rule="nonzero" />
		<path id="Vector" d="M77.4887 31.2104C82.9285 31.2104 87.3541 26.7848 87.3541 21.3449C87.3541 15.9051 82.9285 11.4795 77.4887 11.4795C72.0489 11.4795 67.6232 15.9051 67.6232 21.3449C67.6232 26.7848 72.0489 31.2104 77.4887 31.2104ZM77.4887 16.8606C79.9613 16.8606 81.973 18.8723 81.973 21.3449C81.973 23.8176 79.9613 25.8292 77.4887 25.8292C75.016 25.8292 73.0044 23.8176 73.0044 21.3449C73.0044 18.8723 75.016 16.8606 77.4887 16.8606Z" fill="rgb(35,82,222)" fill-rule="nonzero" />
		<path id="Vector" d="M79.6591 37.3096L75.4976 37.3096C70.5938 37.3096 66.3606 40.2068 64.4316 44.3682C60.4602 40.0328 54.7556 37.3096 48.4267 37.3096L43.412 37.3096C37.083 37.3096 31.3784 40.0328 27.407 44.3682C25.4778 40.2068 21.2446 37.3096 16.3408 37.3096L12.1794 37.3096C5.46367 37.3096 0 42.7402 0 49.4154L0 69.0046C0 71.9025 2.36663 74.2602 5.27569 74.2602L21.7289 74.2602C22.0048 77.4709 24.7047 80.0001 27.986 80.0001L63.8526 80.0001C67.1337 80.0001 69.8336 77.4709 70.1097 74.2602L86.3749 74.2602C89.3877 74.2602 91.8386 71.8189 91.8386 68.818L91.8386 49.4154C91.8384 42.7402 86.3748 37.3096 79.6591 37.3096ZM5.38116 49.4154C5.38116 45.7074 8.43084 42.6907 12.1794 42.6907L16.3408 42.6907C20.0893 42.6907 23.139 45.7074 23.139 49.4154L23.139 51.2577C21.3297 55.9687 21.704 58.792 21.704 68.879L5.38116 68.879L5.38116 49.4154ZM64.7533 73.7183C64.7533 74.215 64.3493 74.6189 63.8526 74.6189L27.9858 74.6189C27.4891 74.6189 27.0852 74.2148 27.0852 73.7183L27.0852 59.0175C27.0852 50.0148 34.4093 42.6907 43.4118 42.6907L48.4265 42.6907C57.4291 42.6907 64.7533 50.0148 64.7533 59.0173L64.7533 73.7183ZM86.4573 68.818C86.4573 68.9108 87.4603 68.879 70.1344 68.879C70.1344 58.7174 70.5059 55.961 68.6994 51.2577L68.6994 49.4154C68.6994 45.7074 71.7491 42.6907 75.4976 42.6907L79.6591 42.6907C83.4076 42.6907 86.4573 45.7074 86.4573 49.4154L86.4573 68.818Z" fill="rgb(35,82,222)" fill-rule="nonzero" />
		<path id="Vector" d="M14.3498 31.2104C19.7896 31.2104 24.2152 26.7848 24.2152 21.3449C24.2152 15.9051 19.7896 11.4795 14.3498 11.4795C8.90996 11.4795 4.48431 15.9051 4.48431 21.3449C4.48431 26.7848 8.90996 31.2104 14.3498 31.2104ZM14.3498 16.8606C16.8224 16.8606 18.8341 18.8723 18.8341 21.3449C18.8341 23.8176 16.8224 25.8292 14.3498 25.8292C11.8771 25.8292 9.86547 23.8176 9.86547 21.3449C9.86547 18.8723 11.8771 16.8606 14.3498 16.8606Z" fill="rgb(35,82,222)" fill-rule="nonzero" />
	</g>
</svg>
