<svg viewBox="0 0 80.3137 80" xmlns="http://www.w3.org/2000/svg" xmlns:xlink="http://www.w3.org/1999/xlink" width="80.313721" height="80.000000" fill="none" customFrame="#000000">
	<g id="review">
		<path id="Vector" d="M71.6863 0L27.7647 0C23.0075 0 19.1373 3.87027 19.1373 8.62745L19.1373 28.2353L8.62745 28.2353C3.87027 28.2353 0 32.1056 0 36.8627L0 61.9608C0 66.718 3.87027 70.5882 8.62745 70.5882L23.0544 70.5882L28.6304 78.9522C29.0668 79.6068 29.8016 80 30.5882 80C31.3749 80 32.1096 79.6068 32.546 78.9522L38.122 70.5882L52.549 70.5882C57.3062 70.5882 61.1765 66.718 61.1765 61.9608L61.1765 42.3529L71.6863 42.3529C76.4435 42.3529 80.3137 38.4827 80.3137 33.7255L80.3137 8.62745C80.3137 3.87027 76.4435 0 71.6863 0ZM56.4706 61.9608C56.4706 64.1231 54.7114 65.8824 52.549 65.8824L36.8627 65.8824C36.0761 65.8824 35.3413 66.2756 34.9049 66.9302L30.5882 73.4052L26.2715 66.9302C25.8351 66.2756 25.1004 65.8824 24.3137 65.8824L8.62745 65.8824C6.4651 65.8824 4.70588 64.1231 4.70588 61.9608L4.70588 36.8627C4.70588 34.7004 6.4651 32.9412 8.62745 32.9412L19.1373 32.9412L19.1373 33.7255C19.1373 35.1373 19.4803 36.4695 20.0839 37.6471L11.7647 37.6471C10.4653 37.6471 9.41177 38.7006 9.41177 40C9.41177 41.2994 10.4653 42.3529 11.7647 42.3529L42.1918 42.3529L45.3291 47.0588L11.7647 47.0588C10.4653 47.0588 9.41177 48.1123 9.41177 49.4118C9.41177 50.7112 10.4653 51.7647 11.7647 51.7647L49.7255 51.7647C50.5123 51.7647 51.2469 51.3715 51.6831 50.7169L56.4706 43.5358L56.4706 61.9608ZM75.6078 33.7255C75.6078 35.8878 73.8486 37.6471 71.6863 37.6471L56 37.6471C55.2132 37.6471 54.4786 38.0403 54.0424 38.6949L49.7255 45.1699L45.4086 38.6949C44.9724 38.0403 44.2376 37.6471 43.451 37.6471L27.7647 37.6471C25.6024 37.6471 23.8431 35.8878 23.8431 33.7255L23.8431 8.62745C23.8431 6.4651 25.6024 4.70588 27.7647 4.70588L71.6863 4.70588C73.8486 4.70588 75.6078 6.4651 75.6078 8.62745L75.6078 33.7255Z" fill="rgb(35,82,222)" fill-rule="nonzero" />
		<path id="Vector" d="M49.4117 56.4707L11.7647 56.4707C10.4652 56.4707 9.41174 57.5242 9.41174 58.8236C9.41174 60.1231 10.4652 61.1766 11.7647 61.1766L49.4117 61.1766C50.7112 61.1766 51.7647 60.1231 51.7647 58.8236C51.7647 57.5242 50.7112 56.4707 49.4117 56.4707Z" fill="rgb(35,82,222)" fill-rule="nonzero" />
		<path id="Vector" d="M61.0442 16.3827L54.6811 15.458L51.8354 9.6919C51.439 8.88876 50.6211 8.38037 49.7254 8.38037C48.8298 8.38037 48.0119 8.88876 47.6155 9.6919L44.7698 15.458L38.4067 16.3827C37.5204 16.5114 36.784 17.1322 36.5072 17.9841C36.2304 18.8359 36.4613 19.771 37.1025 20.3961L41.7069 24.8841L40.6199 31.2215C40.4685 32.1043 40.8315 32.9964 41.556 33.523C42.2804 34.0491 43.2409 34.1187 44.034 33.7021L49.7254 30.7098L55.4167 33.7021C55.7611 33.883 56.1369 33.9724 56.5115 33.9724C56.9993 33.9724 57.485 33.8208 57.8947 33.5231C58.6192 32.9967 58.9822 32.1044 58.8309 31.2216L57.7438 24.8842L62.3482 20.3962C62.9896 19.7711 63.2205 18.8361 62.9436 17.9843C62.6669 17.1324 61.9306 16.5115 61.0442 16.3827ZM53.5733 22.3779C53.0186 22.9184 52.7656 23.6972 52.8966 24.4605L53.3868 27.3181L50.8205 25.9688C50.4776 25.7887 50.1016 25.6985 49.7256 25.6985C49.3496 25.6985 48.9734 25.7885 48.6307 25.9688L46.0644 27.3181L46.5546 24.4605C46.6856 23.6972 46.4326 22.9184 45.8779 22.3779L43.8018 20.3542L46.6712 19.9372C47.4376 19.8259 48.1 19.3446 48.4428 18.6502L49.7259 16.0502L51.0091 18.6502C51.3518 19.3446 52.0142 19.8259 52.7807 19.9372L55.65 20.3542L53.5733 22.3779Z" fill="rgb(35,82,222)" fill-rule="nonzero" />
	</g>
</svg>
