<svg viewBox="0 0 44 44" xmlns="http://www.w3.org/2000/svg" xmlns:xlink="http://www.w3.org/1999/xlink" width="44.000000" height="44.000000" fill="none">
	<rect id="facebook (1) 1" width="44.000000" height="44.000000" x="0.000000" y="0.000000" fill="rgb(255,255,255)" fill-opacity="0" />
	<g id="Group">
		<g id="Group">
			<path id="Vector" d="M38.8438 0L5.15625 0C2.31309 0 0 2.31309 0 5.15625L0 38.8438C0 41.6869 2.31309 44 5.15625 44L38.8438 44C41.6869 44 44 41.6869 44 38.8438L44 5.15625C44 2.31309 41.6869 0 38.8438 0ZM40.5625 38.8438C40.5625 39.7915 39.7915 40.5625 38.8438 40.5625L29.0469 40.5625L29.0469 26.5547L34.357 26.5547L35.2344 21.2266L29.0469 21.2266L29.0469 17.5312C29.0469 16.0725 30.1662 14.9531 31.625 14.9531L35.1484 14.9531L35.1484 9.625L31.625 9.625C27.2488 9.625 23.7206 13.1699 23.7206 17.5462L23.7206 21.2266L18.5625 21.2266L18.5625 26.5547L23.7206 26.5547L23.7206 40.5625L5.15625 40.5625C4.20853 40.5625 3.4375 39.7915 3.4375 38.8438L3.4375 5.15625C3.4375 4.20853 4.20853 3.4375 5.15625 3.4375L38.8438 3.4375C39.7915 3.4375 40.5625 4.20853 40.5625 5.15625L40.5625 38.8438Z" fill="rgb(35,82,222)" fill-rule="nonzero" />
		</g>
	</g>
</svg>
